<svg width="1600" height="900" viewBox="0 0 1600 900" fill="none" xmlns="http://www.w3.org/2000/svg" style="--accent-color: #1d4ed8;">
  <defs>
    <linearGradient id="g4" x1="120" y1="110" x2="1480" y2="820" gradientUnits="userSpaceOnUse">
      <stop stop-color="var(--accent-color, #1d4ed8)"/>
      <stop offset="1" stop-color="#334155"/>
    </linearGradient>
  </defs>
  <rect width="1600" height="900" rx="48" fill="url(#g4)"/>
  <circle cx="1270" cy="220" r="200" fill="#FFFFFF" fill-opacity="0.12"/>
  <circle cx="320" cy="680" r="260" fill="#FFFFFF" fill-opacity="0.08"/>
  <rect x="170" y="170" width="330" height="18" rx="9" fill="#FFFFFF" fill-opacity="0.28"/>
  <rect x="170" y="210" width="250" height="18" rx="9" fill="#FFFFFF" fill-opacity="0.18"/>
  <rect x="210" y="330" width="560" height="430" rx="32" fill="#FFFFFF" fill-opacity="0.16"/>
  <rect x="270" y="390" width="220" height="24" rx="12" fill="#FFFFFF" fill-opacity="0.34"/>
  <rect x="270" y="440" width="360" height="18" rx="9" fill="#FFFFFF" fill-opacity="0.26"/>
  <rect x="270" y="480" width="300" height="18" rx="9" fill="#FFFFFF" fill-opacity="0.2"/>
  <rect x="270" y="520" width="420" height="18" rx="9" fill="#FFFFFF" fill-opacity="0.18"/>
  <rect x="270" y="600" width="140" height="46" rx="16" fill="#86EFAC" fill-opacity="0.9"/>
  <rect x="430" y="600" width="180" height="46" rx="16" fill="#FFFFFF" fill-opacity="0.22"/>
  <rect x="860" y="240" width="560" height="520" rx="38" fill="#FFFFFF" fill-opacity="0.12"/>
  <rect x="910" y="300" width="460" height="18" rx="9" fill="#FFFFFF" fill-opacity="0.28"/>
  <rect x="910" y="350" width="320" height="18" rx="9" fill="#FFFFFF" fill-opacity="0.18"/>
  <rect x="910" y="420" width="410" height="18" rx="9" fill="#FFFFFF" fill-opacity="0.2"/>
  <rect x="910" y="470" width="350" height="18" rx="9" fill="#FFFFFF" fill-opacity="0.16"/>
  <rect x="910" y="540" width="280" height="18" rx="9" fill="#FFFFFF" fill-opacity="0.24"/>
  <rect x="910" y="610" width="120" height="70" rx="18" fill="#F59E0B" fill-opacity="0.9"/>
</svg>
