<svg width="1600" height="900" viewBox="0 0 1600 900" fill="none" xmlns="http://www.w3.org/2000/svg">
  <defs>
    <linearGradient id="g6" x1="120" y1="110" x2="1480" y2="820" gradientUnits="userSpaceOnUse">
      <stop stop-color="#0F766E"/>
      <stop offset="1" stop-color="#A7F3D0"/>
    </linearGradient>
  </defs>
  <rect width="1600" height="900" rx="48" fill="url(#g6)"/>
  <circle cx="1270" cy="220" r="200" fill="#FFFFFF" fill-opacity="0.12"/>
  <circle cx="320" cy="680" r="250" fill="#FFFFFF" fill-opacity="0.08"/>
  <rect x="165" y="175" width="280" height="18" rx="9" fill="#FFFFFF" fill-opacity="0.3"/>
  <rect x="165" y="215" width="250" height="18" rx="9" fill="#FFFFFF" fill-opacity="0.18"/>
  <path d="M235 620C300 540 370 510 455 528C548 548 586 640 675 650C760 660 826 612 898 560C1010 478 1112 450 1218 476C1300 496 1360 556 1410 622" stroke="#FFFFFF" stroke-opacity="0.3" stroke-width="18" stroke-linecap="round"/>
  <rect x="170" y="315" width="520" height="360" rx="34" fill="#FFFFFF" fill-opacity="0.14"/>
  <circle cx="420" cy="490" r="115" fill="#FFFFFF" fill-opacity="0.22"/>
  <circle cx="420" cy="490" r="70" fill="#FFFFFF" fill-opacity="0.14"/>
  <rect x="770" y="250" width="640" height="480" rx="36" fill="#FFFFFF" fill-opacity="0.12"/>
  <rect x="830" y="310" width="460" height="18" rx="9" fill="#FFFFFF" fill-opacity="0.28"/>
  <rect x="830" y="360" width="320" height="18" rx="9" fill="#FFFFFF" fill-opacity="0.18"/>
  <rect x="830" y="430" width="420" height="18" rx="9" fill="#FFFFFF" fill-opacity="0.2"/>
  <rect x="830" y="480" width="280" height="18" rx="9" fill="#FFFFFF" fill-opacity="0.16"/>
  <rect x="830" y="570" width="160" height="70" rx="18" fill="#FFFFFF" fill-opacity="0.24"/>
  <rect x="1010" y="570" width="140" height="70" rx="18" fill="#F59E0B" fill-opacity="0.92"/>
  <rect x="1170" y="570" width="140" height="70" rx="18" fill="#1D4ED8" fill-opacity="0.72"/>
</svg>
