<svg width="1600" height="900" viewBox="0 0 1600 900" fill="none" xmlns="http://www.w3.org/2000/svg">
  <defs>
    <linearGradient id="g7" x1="120" y1="110" x2="1480" y2="820" gradientUnits="userSpaceOnUse">
      <stop stop-color="#B45309"/>
      <stop offset="1" stop-color="#1D4ED8"/>
    </linearGradient>
  </defs>
  <rect width="1600" height="900" rx="48" fill="url(#g7)"/>
  <circle cx="1240" cy="220" r="200" fill="#FFFFFF" fill-opacity="0.12"/>
  <circle cx="340" cy="690" r="250" fill="#FFFFFF" fill-opacity="0.08"/>
  <rect x="170" y="170" width="280" height="18" rx="9" fill="#FFFFFF" fill-opacity="0.3"/>
  <rect x="170" y="210" width="220" height="18" rx="9" fill="#FFFFFF" fill-opacity="0.18"/>
  <rect x="170" y="320" width="610" height="390" rx="36" fill="#FFFFFF" fill-opacity="0.14"/>
  <rect x="230" y="390" width="180" height="180" rx="30" fill="#FFFFFF" fill-opacity="0.24"/>
  <circle cx="590" cy="500" r="108" fill="#FFFFFF" fill-opacity="0.18"/>
  <circle cx="590" cy="500" r="62" fill="#FFFFFF" fill-opacity="0.28"/>
  <rect x="840" y="250" width="620" height="480" rx="38" fill="#FFFFFF" fill-opacity="0.12"/>
  <rect x="900" y="310" width="220" height="18" rx="9" fill="#FFFFFF" fill-opacity="0.28"/>
  <rect x="900" y="360" width="380" height="18" rx="9" fill="#FFFFFF" fill-opacity="0.18"/>
  <rect x="900" y="440" width="340" height="18" rx="9" fill="#FFFFFF" fill-opacity="0.2"/>
  <rect x="900" y="490" width="260" height="18" rx="9" fill="#FFFFFF" fill-opacity="0.16"/>
  <rect x="900" y="580" width="150" height="70" rx="18" fill="#F59E0B" fill-opacity="0.92"/>
  <rect x="1070" y="580" width="150" height="70" rx="18" fill="#FFFFFF" fill-opacity="0.22"/>
  <rect x="1240" y="580" width="150" height="70" rx="18" fill="#86EFAC" fill-opacity="0.92"/>
</svg>
