<svg width="1600" height="900" viewBox="0 0 1600 900" fill="none" xmlns="http://www.w3.org/2000/svg">
  <defs>
    <linearGradient id="g5" x1="120" y1="110" x2="1480" y2="820" gradientUnits="userSpaceOnUse">
      <stop stop-color="#0F766E"/>
      <stop offset="1" stop-color="#1D4ED8"/>
    </linearGradient>
  </defs>
  <rect width="1600" height="900" rx="48" fill="url(#g5)"/>
  <circle cx="1240" cy="210" r="180" fill="#FFFFFF" fill-opacity="0.12"/>
  <circle cx="350" cy="690" r="260" fill="#FFFFFF" fill-opacity="0.08"/>
  <rect x="160" y="170" width="320" height="18" rx="9" fill="#FFFFFF" fill-opacity="0.3"/>
  <rect x="160" y="210" width="240" height="18" rx="9" fill="#FFFFFF" fill-opacity="0.18"/>
  <rect x="170" y="340" width="500" height="360" rx="34" fill="#FFFFFF" fill-opacity="0.15"/>
  <circle cx="410" cy="450" r="96" fill="#FFFFFF" fill-opacity="0.28"/>
  <circle cx="410" cy="450" r="48" fill="#FFFFFF" fill-opacity="0.2"/>
  <rect x="760" y="260" width="650" height="460" rx="38" fill="#FFFFFF" fill-opacity="0.12"/>
  <rect x="820" y="320" width="520" height="18" rx="9" fill="#FFFFFF" fill-opacity="0.28"/>
  <rect x="820" y="370" width="320" height="18" rx="9" fill="#FFFFFF" fill-opacity="0.18"/>
  <rect x="820" y="450" width="460" height="18" rx="9" fill="#FFFFFF" fill-opacity="0.2"/>
  <rect x="820" y="500" width="370" height="18" rx="9" fill="#FFFFFF" fill-opacity="0.16"/>
  <rect x="820" y="590" width="160" height="60" rx="18" fill="#FFFFFF" fill-opacity="0.24"/>
  <rect x="1000" y="590" width="120" height="60" rx="18" fill="#86EFAC" fill-opacity="0.92"/>
  <rect x="1140" y="590" width="140" height="60" rx="18" fill="#F59E0B" fill-opacity="0.92"/>
</svg>
