<svg width="1600" height="900" viewBox="0 0 1600 900" fill="none" xmlns="http://www.w3.org/2000/svg">
  <defs>
    <linearGradient id="g8" x1="120" y1="110" x2="1480" y2="820" gradientUnits="userSpaceOnUse">
      <stop stop-color="#075985"/>
      <stop offset="1" stop-color="#0F766E"/>
    </linearGradient>
  </defs>
  <rect width="1600" height="900" rx="48" fill="url(#g8)"/>
  <circle cx="1250" cy="220" r="200" fill="#FFFFFF" fill-opacity="0.12"/>
  <circle cx="340" cy="690" r="250" fill="#FFFFFF" fill-opacity="0.08"/>
  <rect x="170" y="170" width="320" height="18" rx="9" fill="#FFFFFF" fill-opacity="0.28"/>
  <rect x="170" y="210" width="260" height="18" rx="9" fill="#FFFFFF" fill-opacity="0.18"/>
  <rect x="180" y="330" width="520" height="340" rx="36" fill="#FFFFFF" fill-opacity="0.14"/>
  <rect x="250" y="410" width="150" height="150" rx="36" fill="#FFFFFF" fill-opacity="0.24"/>
  <rect x="470" y="410" width="150" height="150" rx="36" fill="#FFFFFF" fill-opacity="0.2"/>
  <path d="M330 488C368 452 396 435 470 435" stroke="#A7F3D0" stroke-width="16" stroke-linecap="round"/>
  <path d="M550 488C512 452 484 435 410 435" stroke="#FDE68A" stroke-width="16" stroke-linecap="round"/>
  <rect x="820" y="250" width="640" height="480" rx="38" fill="#FFFFFF" fill-opacity="0.12"/>
  <rect x="880" y="310" width="490" height="18" rx="9" fill="#FFFFFF" fill-opacity="0.28"/>
  <rect x="880" y="360" width="340" height="18" rx="9" fill="#FFFFFF" fill-opacity="0.18"/>
  <rect x="880" y="430" width="430" height="18" rx="9" fill="#FFFFFF" fill-opacity="0.2"/>
  <rect x="880" y="480" width="320" height="18" rx="9" fill="#FFFFFF" fill-opacity="0.16"/>
  <rect x="880" y="570" width="160" height="70" rx="18" fill="#F59E0B" fill-opacity="0.92"/>
  <rect x="1060" y="570" width="150" height="70" rx="18" fill="#86EFAC" fill-opacity="0.92"/>
  <rect x="1230" y="570" width="150" height="70" rx="18" fill="#FFFFFF" fill-opacity="0.22"/>
</svg>
